<mxfile host="app.diagrams.net" modified="2022-10-23T10:59:50.038Z" agent="5.0 (Windows NT 10.0; Win64; x64) AppleWebKit/537.36 (KHTML, like Gecko) Chrome/96.0.4664.45 Safari/537.36" etag="zs4j09ij4xfuy2jHJrF_" version="20.4.0" type="github">
  <diagram id="hb7whxDd0IUxSN57wa4T" name="第 1 页">
    <mxGraphModel dx="1422" dy="762" grid="1" gridSize="10" guides="1" tooltips="1" connect="1" arrows="1" fold="1" page="1" pageScale="1" pageWidth="700" pageHeight="400" math="0" shadow="0">
      <root>
        <mxCell id="0" />
        <mxCell id="1" parent="0" />
        <mxCell id="BL1SgZ_QQM_9l9nI024T-2" value="&lt;font style=&quot;font-size: 14px;&quot;&gt;我司调度系统&lt;/font&gt;" style="html=1;verticalLabelPosition=bottom;align=center;labelBackgroundColor=#ffffff;verticalAlign=top;strokeWidth=2;strokeColor=#0080F0;shadow=0;dashed=0;shape=mxgraph.ios7.icons.data;fontStyle=1" vertex="1" parent="1">
          <mxGeometry x="100" y="39.1" width="96" height="70.9" as="geometry" />
        </mxCell>
        <mxCell id="BL1SgZ_QQM_9l9nI024T-3" value="订单信息" style="swimlane;childLayout=stackLayout;horizontal=1;startSize=30;horizontalStack=0;rounded=1;fontSize=14;fontStyle=0;strokeWidth=2;resizeParent=0;resizeLast=1;shadow=0;dashed=0;align=center;fontColor=#000066;" vertex="1" parent="1">
          <mxGeometry x="300" y="80" width="120" height="80" as="geometry" />
        </mxCell>
        <mxCell id="BL1SgZ_QQM_9l9nI024T-4" value="- order1&#xa;- order2&#xa;   ..." style="align=left;strokeColor=none;fillColor=none;spacingLeft=4;fontSize=12;verticalAlign=top;resizable=0;rotatable=0;part=1;" vertex="1" parent="BL1SgZ_QQM_9l9nI024T-3">
          <mxGeometry y="30" width="120" height="50" as="geometry" />
        </mxCell>
        <mxCell id="BL1SgZ_QQM_9l9nI024T-7" value="&lt;b&gt;&lt;font style=&quot;font-size: 14px;&quot;&gt;合作商&lt;/font&gt;&lt;/b&gt;" style="strokeWidth=2;html=1;shape=mxgraph.flowchart.start_1;whiteSpace=wrap;" vertex="1" parent="1">
          <mxGeometry x="350" y="160" width="120" height="60" as="geometry" />
        </mxCell>
        <mxCell id="BL1SgZ_QQM_9l9nI024T-8" value="&lt;b&gt;&lt;font style=&quot;font-size: 14px;&quot;&gt;仓库&lt;/font&gt;&lt;/b&gt;" style="strokeWidth=2;html=1;shape=mxgraph.flowchart.terminator;whiteSpace=wrap;" vertex="1" parent="1">
          <mxGeometry x="130" y="290" width="390" height="80" as="geometry" />
        </mxCell>
        <mxCell id="BL1SgZ_QQM_9l9nI024T-12" value="" style="endArrow=classic;html=1;rounded=0;entryX=1.042;entryY=0.295;entryDx=0;entryDy=0;entryPerimeter=0;" edge="1" parent="1" target="BL1SgZ_QQM_9l9nI024T-2">
          <mxGeometry width="50" height="50" relative="1" as="geometry">
            <mxPoint x="570" y="60" as="sourcePoint" />
            <mxPoint x="180" y="160" as="targetPoint" />
          </mxGeometry>
        </mxCell>
        <mxCell id="BL1SgZ_QQM_9l9nI024T-14" value="&lt;b&gt;&lt;font style=&quot;font-size: 14px;&quot;&gt;菜鸟WMS&lt;/font&gt;&lt;/b&gt;" style="html=1;verticalLabelPosition=bottom;align=center;labelBackgroundColor=#ffffff;verticalAlign=top;strokeWidth=2;strokeColor=#0080F0;shadow=0;dashed=0;shape=mxgraph.ios7.icons.data;" vertex="1" parent="1">
          <mxGeometry x="572" y="40" width="96" height="70.9" as="geometry" />
        </mxCell>
        <mxCell id="BL1SgZ_QQM_9l9nI024T-15" value="" style="endArrow=classic;html=1;rounded=0;entryX=1.042;entryY=0.295;entryDx=0;entryDy=0;entryPerimeter=0;" edge="1" parent="1">
          <mxGeometry width="50" height="50" relative="1" as="geometry">
            <mxPoint x="202.03200000000015" y="74.05" as="sourcePoint" />
            <mxPoint x="572.0000000000002" y="74.06549999999997" as="targetPoint" />
          </mxGeometry>
        </mxCell>
        <mxCell id="BL1SgZ_QQM_9l9nI024T-20" value="" style="endArrow=classic;html=1;rounded=0;entryX=1;entryY=0.333;entryDx=0;entryDy=0;entryPerimeter=0;" edge="1" parent="1" source="BL1SgZ_QQM_9l9nI024T-14" target="BL1SgZ_QQM_9l9nI024T-7">
          <mxGeometry width="50" height="50" relative="1" as="geometry">
            <mxPoint x="490" y="150" as="sourcePoint" />
            <mxPoint x="540" y="200" as="targetPoint" />
          </mxGeometry>
        </mxCell>
        <mxCell id="BL1SgZ_QQM_9l9nI024T-21" value="" style="shape=flexArrow;endArrow=classic;html=1;rounded=0;" edge="1" parent="1">
          <mxGeometry width="50" height="50" relative="1" as="geometry">
            <mxPoint x="370" y="220" as="sourcePoint" />
            <mxPoint x="310" y="280" as="targetPoint" />
          </mxGeometry>
        </mxCell>
        <mxCell id="BL1SgZ_QQM_9l9nI024T-22" value="订单分发给仓库管理人员进行手动或自动检货" style="text;html=1;strokeColor=none;fillColor=none;align=center;verticalAlign=middle;whiteSpace=wrap;rounded=0;" vertex="1" parent="1">
          <mxGeometry x="370" y="240" width="140" height="30" as="geometry" />
        </mxCell>
        <mxCell id="BL1SgZ_QQM_9l9nI024T-23" value="" style="shape=flexArrow;endArrow=classic;html=1;rounded=0;" edge="1" parent="1">
          <mxGeometry width="50" height="50" relative="1" as="geometry">
            <mxPoint x="150" y="140" as="sourcePoint" />
            <mxPoint x="230" y="280" as="targetPoint" />
          </mxGeometry>
        </mxCell>
        <mxCell id="BL1SgZ_QQM_9l9nI024T-26" value="使用菜鸟账号密码请求订单信息" style="text;html=1;strokeColor=none;fillColor=none;align=center;verticalAlign=middle;whiteSpace=wrap;rounded=0;fontSize=14;fontColor=#006600;fontStyle=1" vertex="1" parent="1">
          <mxGeometry x="257" y="34" width="250" height="30" as="geometry" />
        </mxCell>
      </root>
    </mxGraphModel>
  </diagram>
</mxfile>
